<svg width="16" height="16" viewBox="0 0 16 16" fill="none" xmlns="http://www.w3.org/2000/svg">
<g clip-path="url(#clip0_1064_45155)">
<path d="M3.42941 7.99997V4.99426C3.43833 4.40344 3.56375 3.82018 3.79848 3.27792C4.03321 2.73565 4.37263 2.24503 4.79729 1.83417C5.22196 1.4233 5.72352 1.10027 6.27324 0.883584C6.82297 0.666896 7.41004 0.560808 8.00084 0.5714C8.59163 0.560808 9.17871 0.666896 9.72843 0.883584C10.2782 1.10027 10.7797 1.4233 11.2044 1.83417C11.629 2.24503 11.9685 2.73565 12.2032 3.27792C12.4379 3.82018 12.5633 4.40344 12.5723 4.99426V7.99997M10.2866 14C10.8928 14 11.4741 13.7592 11.9028 13.3305C12.3315 12.9018 12.5723 12.3205 12.5723 11.7143V9.14283M10.2866 14C10.2866 14.3789 10.136 14.7422 9.86813 15.0101C9.60022 15.278 9.23686 15.4285 8.85798 15.4285H7.14369C6.76481 15.4285 6.40145 15.278 6.13354 15.0101C5.86563 14.7422 5.71512 14.3789 5.71512 14C5.71512 13.6211 5.86563 13.2577 6.13354 12.9898C6.40145 12.7219 6.76481 12.5714 7.14369 12.5714H8.85798C9.23686 12.5714 9.60022 12.7219 9.86813 12.9898C10.136 13.2577 10.2866 13.6211 10.2866 14ZM1.71512 6.28569H2.85798C3.00953 6.28569 3.15488 6.34589 3.26204 6.45305C3.3692 6.56022 3.42941 6.70556 3.42941 6.85711V10.2857C3.42941 10.4372 3.3692 10.5826 3.26204 10.6897C3.15488 10.7969 3.00953 10.8571 2.85798 10.8571H1.71512C1.41202 10.8571 1.12133 10.7367 0.907001 10.5224C0.692673 10.3081 0.572266 10.0174 0.572266 9.71426V7.42854C0.572266 7.12544 0.692673 6.83475 0.907001 6.62042C1.12133 6.40609 1.41202 6.28569 1.71512 6.28569ZM14.2866 10.8571H13.1437C12.9921 10.8571 12.8468 10.7969 12.7396 10.6897C12.6325 10.5826 12.5723 10.4372 12.5723 10.2857V6.85711C12.5723 6.70556 12.6325 6.56022 12.7396 6.45305C12.8468 6.34589 12.9921 6.28569 13.1437 6.28569H14.2866C14.5897 6.28569 14.8803 6.40609 15.0947 6.62042C15.309 6.83475 15.4294 7.12544 15.4294 7.42854V9.71426C15.4294 10.0174 15.309 10.3081 15.0947 10.5224C14.8803 10.7367 14.5897 10.8571 14.2866 10.8571Z" stroke="#606F8D" stroke-linecap="round" stroke-linejoin="round"/>
</g>
<defs>
<clipPath id="clip0_1064_45155">
<rect width="16" height="16" fill="white"/>
</clipPath>
</defs>
</svg>
