<svg width="24" height="24" viewBox="0 0 24 24" fill="none" xmlns="http://www.w3.org/2000/svg">
<g clip-path="url(#clip0_1459_21723)">
<path d="M15 19C15 19.552 14.553 20 14 20H5C2.244 20 0 17.757 0 15V9.00001C0 8.15201 0.217 7.31401 0.625 6.57701C0.894 6.09501 1.502 5.92201 1.985 6.18801C2.468 6.45601 2.642 7.06501 2.374 7.54801C2.129 7.98901 2 8.49101 2 9.00001V15C2 16.654 3.346 18 5 18H14C14.553 18 15 18.448 15 19ZM18.637 16.875C18.604 16.956 18.557 17.026 18.508 17.093L23.708 22.293C24.099 22.684 24.099 23.316 23.708 23.707C23.513 23.902 23.257 24 23.001 24C22.745 24 22.489 23.902 22.294 23.707L4.294 5.70701L0.293 1.70701C-0.097 1.31601 -0.097 0.684006 0.293 0.293006C0.683 -0.0979942 1.317 -0.0979942 1.708 0.293006L5.415 4.00001H14C16.618 4.00001 18.748 6.03001 18.959 8.59401L20.716 6.82201C20.75 6.78801 20.786 6.75601 20.825 6.72601C21.429 6.27201 22.224 6.20001 22.903 6.53801C23.58 6.87601 24 7.55601 24 8.31301V15.632C24 16.389 23.58 17.069 22.903 17.407C22.62 17.548 22.316 17.618 22.014 17.618C21.593 17.618 21.177 17.483 20.825 17.219C20.788 17.191 20.752 17.16 20.719 17.127L18.965 15.375C18.927 15.891 18.831 16.396 18.637 16.875ZM19 12.583L22.026 15.605L22 8.36701L19 11.394V12.583ZM17 9.00001C17 7.34601 15.654 6.00001 14 6.00001H7.414L16.949 15.535C16.98 15.36 17 15.182 17 15V9.00001Z" fill="white"/>
</g>
<defs>
<clipPath id="clip0_1459_21723">
<rect width="24" height="24" fill="white"/>
</clipPath>
</defs>
</svg>
