<svg width="24" height="24" viewBox="0 0 24 24" fill="none" xmlns="http://www.w3.org/2000/svg">
<g clip-path="url(#clip0_1429_8529)">
<path d="M22.9998 16.653L20.6598 14.853C20.0823 14.3034 19.3153 13.9973 18.5181 13.9984C17.7208 13.9995 16.9547 14.3078 16.3788 14.859L14.9098 16.027C13.3539 15.3831 11.9407 14.438 10.7513 13.2461C9.56183 12.0543 8.61961 10.6392 7.97876 9.08204L9.13676 7.62604C9.68848 7.05022 9.99706 6.28392 9.99836 5.48645C9.99967 4.68897 9.69359 3.92167 9.14376 3.34405L7.34576 1.00004C7.31935 0.964835 7.29062 0.931428 7.25976 0.900045C6.68868 0.32623 5.9147 0.000242567 5.10517 -0.00742981C4.29564 -0.0151022 3.51562 0.296157 2.93376 0.859045L1.78376 1.85904C-5.93524 10.069 13.9838 30.004 22.1838 22.159L23.0938 21.11C23.6733 20.5289 23.9987 19.7417 23.9987 18.921C23.9987 18.1004 23.6733 17.3132 23.0938 16.732C23.0639 16.704 23.0325 16.6776 22.9998 16.653ZM21.6358 19.753L20.7248 20.803C14.7878 26.418 -2.50024 10.114 3.14676 3.32505L4.29676 2.32505C4.49591 2.12701 4.76326 2.01264 5.04401 2.00539C5.32477 1.99814 5.59766 2.09855 5.80676 2.28605L7.59276 4.60905C7.61895 4.64444 7.64769 4.67786 7.67876 4.70904C7.88303 4.91506 7.99764 5.19343 7.99764 5.48354C7.99764 5.77366 7.88303 6.05203 7.67876 6.25804C7.65063 6.28358 7.62423 6.31097 7.59976 6.34004L6.04376 8.30005C5.93298 8.43884 5.86115 8.60463 5.83567 8.78038C5.81018 8.95613 5.83196 9.1355 5.89876 9.30005C6.65191 11.3151 7.82943 13.1448 9.35153 14.665C10.8736 16.1852 12.7047 17.3604 14.7208 18.111C14.8831 18.1729 15.0587 18.1915 15.2304 18.1648C15.4021 18.1382 15.5638 18.0672 15.6998 17.959L17.6598 16.4C17.6892 16.3763 17.7172 16.351 17.7438 16.324C17.8551 16.2166 17.9872 16.1332 18.1321 16.0791C18.277 16.0249 18.4315 16.0011 18.5859 16.0092C18.7404 16.0173 18.8916 16.057 19.03 16.126C19.1685 16.1949 19.2913 16.2916 19.3908 16.41L21.7168 18.197C21.9074 18.4169 22.0052 18.7022 21.9893 18.9927C21.9735 19.2833 21.8452 19.5563 21.6318 19.754L21.6358 19.753ZM23.7068 6.29305C23.8889 6.48165 23.9897 6.73425 23.9874 6.99645C23.9852 7.25864 23.88 7.50946 23.6946 7.69486C23.5092 7.88027 23.2584 7.98544 22.9962 7.98772C22.734 7.99 22.4814 7.8892 22.2928 7.70704L19.9998 5.41404L17.7068 7.70704C17.5182 7.8892 17.2656 7.99 17.0034 7.98772C16.7412 7.98544 16.4904 7.88027 16.3049 7.69486C16.1195 7.50946 16.0144 7.25864 16.0121 6.99645C16.0098 6.73425 16.1106 6.48165 16.2928 6.29305L18.5858 4.00004L16.2928 1.70704C16.1106 1.51844 16.0098 1.26584 16.0121 1.00364C16.0144 0.741447 16.1195 0.490635 16.3049 0.305226C16.4904 0.119818 16.7412 0.0146494 17.0034 0.012371C17.2656 0.0100925 17.5182 0.110887 17.7068 0.293045L19.9998 2.58605L22.2928 0.293045C22.4814 0.110887 22.734 0.0100925 22.9962 0.012371C23.2584 0.0146494 23.5092 0.119818 23.6946 0.305226C23.88 0.490635 23.9852 0.741447 23.9874 1.00364C23.9897 1.26584 23.8889 1.51844 23.7068 1.70704L21.4138 4.00004L23.7068 6.29305Z" fill="white"/>
</g>
<defs>
<clipPath id="clip0_1429_8529">
<rect width="24" height="24" fill="white"/>
</clipPath>
</defs>
</svg>
