<svg width="16" height="16" viewBox="0 0 16 16" fill="none" xmlns="http://www.w3.org/2000/svg">
<g clip-path="url(#clip0_726_27259)">
<path d="M8.00631 15.7767C7.68898 15.7767 7.36964 15.6647 7.11498 15.4387L4.61631 13.334H2.66764C1.19698 13.334 0.000976841 12.138 0.000976841 10.6673V2.66667C0.000310174 1.196 1.19631 0 2.66698 0H13.3336C14.8043 0 16.0003 1.196 16.0003 2.66667V10.6667C16.0003 12.1373 14.8043 13.3333 13.3336 13.3333H11.4323L8.86764 15.4533C8.62631 15.668 8.31764 15.776 8.00564 15.776L8.00631 15.7767ZM2.66698 1.33333C1.93164 1.33333 1.33364 1.93133 1.33364 2.66667V10.6667C1.33364 11.402 1.93164 12 2.66698 12H4.85964C5.01698 12 5.16898 12.0553 5.28964 12.1567L7.98764 14.43L10.7676 12.1527C10.8876 12.054 11.0376 12 11.193 12H13.3343C14.0696 12 14.6676 11.402 14.6676 10.6667V2.66667C14.6676 1.93133 14.0696 1.33333 13.3343 1.33333H2.66698Z" fill="#2A3855"/>
</g>
<defs>
<clipPath id="clip0_726_27259">
<rect width="16" height="16" fill="white"/>
</clipPath>
</defs>
</svg>
