<svg width="16" height="16" viewBox="0 0 16 16" fill="none" xmlns="http://www.w3.org/2000/svg">
<g clip-path="url(#clip0_1316_15160)">
<path d="M11.9998 0H5.33317C4.68533 0.00085225 4.05177 0.19047 3.50998 0.545666C2.96819 0.900862 2.54164 1.40624 2.2825 2H1.33317C1.15636 2 0.98679 2.07024 0.861766 2.19526C0.736742 2.32029 0.666504 2.48986 0.666504 2.66667C0.666504 2.84348 0.736742 3.01305 0.861766 3.13807C0.98679 3.2631 1.15636 3.33333 1.33317 3.33333H1.99984V4.66667H1.33317C1.15636 4.66667 0.98679 4.7369 0.861766 4.86193C0.736742 4.98695 0.666504 5.15652 0.666504 5.33333C0.666504 5.51014 0.736742 5.67971 0.861766 5.80474C0.98679 5.92976 1.15636 6 1.33317 6H1.99984V7.33333H1.33317C1.15636 7.33333 0.98679 7.40357 0.861766 7.5286C0.736742 7.65362 0.666504 7.82319 0.666504 8C0.666504 8.17681 0.736742 8.34638 0.861766 8.47141C0.98679 8.59643 1.15636 8.66667 1.33317 8.66667H1.99984V10H1.33317C1.15636 10 0.98679 10.0702 0.861766 10.1953C0.736742 10.3203 0.666504 10.4899 0.666504 10.6667C0.666504 10.8435 0.736742 11.013 0.861766 11.1381C0.98679 11.2631 1.15636 11.3333 1.33317 11.3333H1.99984V12.6667H1.33317C1.15636 12.6667 0.98679 12.7369 0.861766 12.8619C0.736742 12.987 0.666504 13.1565 0.666504 13.3333C0.666504 13.5101 0.736742 13.6797 0.861766 13.8047C0.98679 13.9298 1.15636 14 1.33317 14H2.2825C2.54164 14.5938 2.96819 15.0991 3.50998 15.4543C4.05177 15.8095 4.68533 15.9991 5.33317 16H11.9998C12.8836 15.9989 13.7308 15.6474 14.3557 15.0225C14.9806 14.3976 15.3321 13.5504 15.3332 12.6667V3.33333C15.3321 2.4496 14.9806 1.60237 14.3557 0.97748C13.7308 0.352588 12.8836 0.00105857 11.9998 0ZM13.9998 12.6667C13.9998 13.1971 13.7891 13.7058 13.4141 14.0809C13.039 14.456 12.5303 14.6667 11.9998 14.6667H5.33317C4.80274 14.6667 4.29403 14.456 3.91896 14.0809C3.54388 13.7058 3.33317 13.1971 3.33317 12.6667V3.33333C3.33317 2.8029 3.54388 2.29419 3.91896 1.91912C4.29403 1.54405 4.80274 1.33333 5.33317 1.33333H11.9998C12.5303 1.33333 13.039 1.54405 13.4141 1.91912C13.7891 2.29419 13.9998 2.8029 13.9998 3.33333V12.6667ZM8.6665 8C9.19694 8 9.70565 7.78929 10.0807 7.41421C10.4558 7.03914 10.6665 6.53043 10.6665 6C10.6665 5.46957 10.4558 4.96086 10.0807 4.58579C9.70565 4.21071 9.19694 4 8.6665 4C8.13607 4 7.62736 4.21071 7.25229 4.58579C6.87722 4.96086 6.6665 5.46957 6.6665 6C6.6665 6.53043 6.87722 7.03914 7.25229 7.41421C7.62736 7.78929 8.13607 8 8.6665 8ZM11.9998 12C11.9998 12.1768 11.9296 12.3464 11.8046 12.4714C11.6796 12.5964 11.51 12.6667 11.3332 12.6667C11.1564 12.6667 10.9868 12.5964 10.8618 12.4714C10.7367 12.3464 10.6665 12.1768 10.6665 12C10.6665 11.4696 10.4558 10.9609 10.0807 10.5858C9.70565 10.2107 9.19694 10 8.6665 10C8.13607 10 7.62736 10.2107 7.25229 10.5858C6.87722 10.9609 6.6665 11.4696 6.6665 12C6.6665 12.1768 6.59627 12.3464 6.47124 12.4714C6.34622 12.5964 6.17665 12.6667 5.99984 12.6667C5.82303 12.6667 5.65346 12.5964 5.52843 12.4714C5.40341 12.3464 5.33317 12.1768 5.33317 12C5.47384 7.59467 11.8605 7.596 11.9998 12Z" fill="#2A3855"/>
</g>
<defs>
<clipPath id="clip0_1316_15160">
<rect width="16" height="16" fill="white"/>
</clipPath>
</defs>
</svg>
