<svg width="16" height="16" viewBox="0 0 16 16" fill="none" xmlns="http://www.w3.org/2000/svg">
<path d="M7.21341 8.60984L7.39016 8.78659C7.53659 8.93303 7.53659 9.17047 7.39016 9.31694L2.70709 14H4.625C4.83209 14 5 14.1679 5 14.375V14.625C5 14.8321 4.83209 15 4.625 15H1.375C1.16791 15 1 14.8321 1 14.625V11.375C1 11.1679 1.16791 11 1.375 11H1.625C1.83209 11 2 11.1679 2 11.375V13.2929L6.68306 8.60984C6.82953 8.46338 7.06697 8.46338 7.21341 8.60984ZM14.625 1H11.375C11.1679 1 11 1.16791 11 1.375V1.625C11 1.83209 11.1679 2 11.375 2H13.2929L8.60984 6.68306C8.46341 6.8295 8.46341 7.06694 8.60984 7.21341L8.78659 7.39016C8.93303 7.53659 9.17047 7.53659 9.31694 7.39016L14 2.70709V4.625C14 4.83209 14.1679 5 14.375 5H14.625C14.8321 5 15 4.83209 15 4.625V1.375C15 1.16791 14.8321 1 14.625 1Z" fill="#2A3855"/>
</svg>
