<svg width="14" height="14" viewBox="0 0 14 14" fill="none" xmlns="http://www.w3.org/2000/svg">
<g clip-path="url(#clip0_1201_7570)">
<path d="M10.2083 1.11816C9.55149 1.12838 8.90895 1.31175 8.34563 1.64974C7.7823 1.98773 7.31814 2.46839 7.00002 3.04316C6.68189 2.46839 6.21773 1.98773 5.6544 1.64974C5.09108 1.31175 4.44855 1.12838 3.79168 1.11816C2.74457 1.16366 1.75801 1.62173 1.04756 2.3923C0.337101 3.16287 -0.0395048 4.1833 1.63596e-05 5.23066C1.63596e-05 7.88308 2.79185 10.7799 5.13335 12.744C5.65614 13.1833 6.31714 13.4242 7.00002 13.4242C7.68289 13.4242 8.34389 13.1833 8.86668 12.744C11.2082 10.7799 14 7.88308 14 5.23066C14.0395 4.1833 13.6629 3.16287 12.9525 2.3923C12.242 1.62173 11.2555 1.16366 10.2083 1.11816ZM8.1171 11.8515C7.80442 12.1148 7.40879 12.2592 7.00002 12.2592C6.59124 12.2592 6.19561 12.1148 5.88293 11.8515C2.88577 9.33675 1.16668 6.92408 1.16668 5.23066C1.12681 4.49258 1.3804 3.76867 1.87214 3.21682C2.36389 2.66497 3.0539 2.32995 3.79168 2.28483C4.52946 2.32995 5.21947 2.66497 5.71122 3.21682C6.20297 3.76867 6.45656 4.49258 6.41668 5.23066C6.41668 5.38537 6.47814 5.53375 6.58754 5.64314C6.69693 5.75254 6.84531 5.814 7.00002 5.814C7.15473 5.814 7.3031 5.75254 7.41249 5.64314C7.52189 5.53375 7.58335 5.38537 7.58335 5.23066C7.54347 4.49258 7.79706 3.76867 8.28881 3.21682C8.78056 2.66497 9.47057 2.32995 10.2083 2.28483C10.9461 2.32995 11.6361 2.66497 12.1279 3.21682C12.6196 3.76867 12.8732 4.49258 12.8333 5.23066C12.8333 6.92408 11.1143 9.33675 8.1171 11.8492V11.8515Z" fill="#F83C52"/>
</g>
<defs>
<clipPath id="clip0_1201_7570">
<rect width="14" height="14" fill="white"/>
</clipPath>
</defs>
</svg>
