<svg width="14" height="14" viewBox="0 0 14 14" fill="none" xmlns="http://www.w3.org/2000/svg">
<g clip-path="url(#clip0_726_22051)">
<path d="M10.2082 1.11816C9.55136 1.12838 8.90883 1.31175 8.34551 1.64974C7.78218 1.98773 7.31802 2.46839 6.99989 3.04316C6.68177 2.46839 6.21761 1.98773 5.65428 1.64974C5.09096 1.31175 4.44842 1.12838 3.79156 1.11816C2.74444 1.16366 1.75789 1.62173 1.04743 2.3923C0.336979 3.16287 -0.0396269 4.1833 -0.000105711 5.23066C-0.000105711 7.88308 2.79173 10.7799 5.13323 12.744C5.65602 13.1833 6.31702 13.4242 6.99989 13.4242C7.68277 13.4242 8.34377 13.1833 8.86656 12.744C11.2081 10.7799 13.9999 7.88308 13.9999 5.23066C14.0394 4.1833 13.6628 3.16287 12.9524 2.3923C12.2419 1.62173 11.2553 1.16366 10.2082 1.11816Z" fill="white"/>
</g>
<defs>
<clipPath id="clip0_726_22051">
<rect width="14" height="14" fill="white"/>
</clipPath>
</defs>
</svg>
