<svg width="16" height="16" viewBox="0 0 16 16" fill="none" xmlns="http://www.w3.org/2000/svg">
<g clip-path="url(#clip0_1316_15164)">
<path d="M15.414 6.046L10.3573 0.988669C9.7315 0.364662 8.88378 0.0142517 8.00001 0.0142517C7.11623 0.0142517 6.26851 0.364662 5.64267 0.988669L0.586008 6.046C0.399625 6.23119 0.251855 6.45154 0.151263 6.69426C0.0506715 6.93698 -0.000740267 7.19726 8.05299e-06 7.46V14.0047C8.05299e-06 14.5351 0.210722 15.0438 0.585795 15.4189C0.960867 15.794 1.46958 16.0047 2.00001 16.0047H14C14.5304 16.0047 15.0391 15.794 15.4142 15.4189C15.7893 15.0438 16 14.5351 16 14.0047V7.46C16.0008 7.19726 15.9493 6.93698 15.8488 6.69426C15.7482 6.45154 15.6004 6.23119 15.414 6.046ZM10 14.6713H6.00001V12.0487C6.00001 11.5182 6.21072 11.0095 6.58579 10.6345C6.96087 10.2594 7.46958 10.0487 8.00001 10.0487C8.53044 10.0487 9.03915 10.2594 9.41422 10.6345C9.7893 11.0095 10 11.5182 10 12.0487V14.6713ZM14.6667 14.0047C14.6667 14.1815 14.5964 14.3511 14.4714 14.4761C14.3464 14.6011 14.1768 14.6713 14 14.6713H11.3333V12.0487C11.3333 11.1646 10.9822 10.3168 10.357 9.69165C9.73191 9.06653 8.88406 8.71534 8.00001 8.71534C7.11595 8.71534 6.26811 9.06653 5.64299 9.69165C5.01786 10.3168 4.66667 11.1646 4.66667 12.0487V14.6713H2.00001C1.8232 14.6713 1.65363 14.6011 1.5286 14.4761C1.40358 14.3511 1.33334 14.1815 1.33334 14.0047V7.46C1.33396 7.28332 1.40413 7.11399 1.52867 6.98867L6.58534 1.93334C6.96114 1.55929 7.46979 1.3493 8.00001 1.3493C8.53023 1.3493 9.03888 1.55929 9.41467 1.93334L14.4713 6.99067C14.5954 7.1155 14.6655 7.28402 14.6667 7.46V14.0047Z" fill="#2A3855"/>
</g>
<defs>
<clipPath id="clip0_1316_15164">
<rect width="16" height="16" fill="white"/>
</clipPath>
</defs>
</svg>
