<svg width="18" height="18" viewBox="0 0 18 18" fill="none" xmlns="http://www.w3.org/2000/svg">
<path d="M17.7188 13.5H6.75V12.0938C6.75 11.6262 6.37383 11.25 5.90625 11.25H4.21875C3.75117 11.25 3.375 11.6262 3.375 12.0938V13.5H0.28125C0.126562 13.5 0 13.6266 0 13.7812V14.3438C0 14.4984 0.126562 14.625 0.28125 14.625H3.375V16.0312C3.375 16.4988 3.75117 16.875 4.21875 16.875H5.90625C6.37383 16.875 6.75 16.4988 6.75 16.0312V14.625H17.7188C17.8734 14.625 18 14.4984 18 14.3438V13.7812C18 13.6266 17.8734 13.5 17.7188 13.5ZM5.625 15.75H4.5V12.375H5.625V15.75ZM17.7188 3.375H9V1.96875C9 1.50117 8.62383 1.125 8.15625 1.125H6.46875C6.00117 1.125 5.625 1.50117 5.625 1.96875V3.375H0.28125C0.126562 3.375 0 3.50156 0 3.65625V4.21875C0 4.37344 0.126562 4.5 0.28125 4.5H5.625V5.90625C5.625 6.37383 6.00117 6.75 6.46875 6.75H8.15625C8.62383 6.75 9 6.37383 9 5.90625V4.5H17.7188C17.8734 4.5 18 4.37344 18 4.21875V3.65625C18 3.50156 17.8734 3.375 17.7188 3.375ZM7.875 5.625H6.75V2.25H7.875V5.625ZM17.7188 8.4375H14.625V7.03125C14.625 6.56367 14.2488 6.1875 13.7812 6.1875H12.0938C11.6262 6.1875 11.25 6.56367 11.25 7.03125V8.4375H0.28125C0.126562 8.4375 0 8.56406 0 8.71875V9.28125C0 9.43594 0.126562 9.5625 0.28125 9.5625H11.25V10.9688C11.25 11.4363 11.6262 11.8125 12.0938 11.8125H13.7812C14.2488 11.8125 14.625 11.4363 14.625 10.9688V9.5625H17.7188C17.8734 9.5625 18 9.43594 18 9.28125V8.71875C18 8.56406 17.8734 8.4375 17.7188 8.4375ZM13.5 10.6875H12.375V7.3125H13.5V10.6875Z" fill="#6833FF"/>
</svg>
