<svg width="24" height="24" viewBox="0 0 24 24" fill="none" xmlns="http://www.w3.org/2000/svg">
<path d="M16.0795 6.16527L15.7481 6.49667C15.5284 6.71633 15.5284 7.07248 15.7481 7.29219L19.6822 11.2036H2.0625C1.75186 11.2036 1.5 11.4555 1.5 11.7661V12.2349C1.5 12.5455 1.75186 12.7974 2.0625 12.7974H19.6822L15.7481 16.7088C15.5284 16.9285 15.5284 17.2846 15.7481 17.5043L16.0795 17.8357C16.2992 18.0554 16.6553 18.0554 16.875 17.8357L22.3352 12.3982C22.5549 12.1786 22.5549 11.8224 22.3352 11.6027L16.875 6.16527C16.6553 5.94556 16.2992 5.94556 16.0795 6.16527Z" fill="#1D2939"/>
</svg>
