<svg width="24" height="24" viewBox="0 0 24 24" fill="none" xmlns="http://www.w3.org/2000/svg">
<path d="M7.92045 17.8357L8.2519 17.5043C8.47155 17.2846 8.47155 16.9285 8.2519 16.7088L4.31777 12.7973H21.9375C22.2481 12.7973 22.5 12.5455 22.5 12.2348V11.7661C22.5 11.4554 22.2481 11.2036 21.9375 11.2036H4.31777L8.2519 7.29215C8.47155 7.0725 8.47155 6.71634 8.2519 6.49664L7.92045 6.16523C7.70079 5.94557 7.34463 5.94557 7.12498 6.16523L1.66474 11.6027C1.44509 11.8224 1.44509 12.1785 1.66474 12.3982L7.12498 17.8357C7.34463 18.0554 7.70079 18.0554 7.92045 17.8357Z" fill="#1D2939"/>
</svg>
