<svg width="16" height="16" viewBox="0 0 16 16" fill="none" xmlns="http://www.w3.org/2000/svg">
<g clip-path="url(#clip0_1064_37254)">
<path opacity="0.4" d="M9.47063 10.9034L9.47375 10.9063L8.72375 11.75C8.65322 11.8289 8.56681 11.8919 8.47019 11.935C8.37356 11.9781 8.26892 12.0002 8.16313 12H7V13.25C7 13.4489 6.92098 13.6397 6.78033 13.7803C6.63968 13.921 6.44891 14 6.25 14H5V15.25C5 15.4489 4.92098 15.6397 4.78033 15.7803C4.63968 15.921 4.44891 16 4.25 16H0.750002C0.55109 16 0.360324 15.921 0.219672 15.7803C0.0790199 15.6397 2.25522e-06 15.4489 2.25522e-06 15.25V12.8125C-0.00023949 12.7139 0.0189562 12.6163 0.0564914 12.5251C0.0940266 12.434 0.149165 12.3511 0.218752 12.2813L5.27594 7.22407L5.2725 7.21313C5.57932 8.14689 6.13042 8.98153 6.86862 9.63044C7.60683 10.2794 8.50524 10.7189 9.47063 10.9034Z" fill="white"/>
<path d="M10.5 0C9.4122 0 8.34884 0.322569 7.44437 0.926917C6.5399 1.53127 5.83495 2.39025 5.41867 3.39524C5.00238 4.40024 4.89346 5.5061 5.10568 6.573C5.3179 7.63989 5.84173 8.6199 6.61092 9.38909C7.3801 10.1583 8.36011 10.6821 9.427 10.8943C10.4939 11.1065 11.5998 10.9976 12.6048 10.5813C13.6098 10.1651 14.4687 9.46011 15.0731 8.55564C15.6774 7.65117 16 6.5878 16 5.5C16 4.04131 15.4205 2.64236 14.3891 1.61091C13.3576 0.579463 11.9587 0 10.5 0ZM12 5.5C11.7033 5.5 11.4133 5.41203 11.1666 5.2472C10.92 5.08238 10.7277 4.84811 10.6142 4.57403C10.5007 4.29994 10.4709 3.99834 10.5288 3.70737C10.5867 3.41639 10.7296 3.14912 10.9393 2.93934C11.1491 2.72956 11.4164 2.5867 11.7074 2.52882C11.9983 2.47094 12.2999 2.50065 12.574 2.61418C12.8481 2.72771 13.0824 2.91997 13.2472 3.16665C13.412 3.41332 13.5 3.70333 13.5 4C13.5 4.39783 13.342 4.77936 13.0607 5.06066C12.7794 5.34197 12.3978 5.5 12 5.5Z" fill="white"/>
</g>
<defs>
<clipPath id="clip0_1064_37254">
<rect width="16" height="16" fill="white"/>
</clipPath>
</defs>
</svg>
