<svg width="16" height="16" viewBox="0 0 16 16" fill="none" xmlns="http://www.w3.org/2000/svg">
<g clip-path="url(#clip0_197_7484)">
<path d="M8 4C7.47258 4 6.95701 4.1564 6.51848 4.44941C6.07994 4.74243 5.73815 5.15891 5.53632 5.64618C5.33448 6.13345 5.28167 6.66962 5.38457 7.18691C5.48746 7.70419 5.74144 8.17935 6.11438 8.55229C6.48732 8.92523 6.96247 9.1792 7.47976 9.28209C7.99704 9.38499 8.53322 9.33218 9.02049 9.13035C9.50776 8.92851 9.92423 8.58672 10.2172 8.14819C10.5103 7.70966 10.6667 7.19408 10.6667 6.66667C10.6667 5.95942 10.3857 5.28115 9.88561 4.78105C9.38552 4.28095 8.70724 4 8 4ZM8 8C7.73629 8 7.4785 7.9218 7.25924 7.77529C7.03997 7.62878 6.86907 7.42055 6.76816 7.17691C6.66724 6.93328 6.64084 6.66519 6.69228 6.40655C6.74373 6.14791 6.87072 5.91033 7.05719 5.72386C7.24366 5.53739 7.48123 5.4104 7.73988 5.35895C7.99852 5.30751 8.26661 5.33391 8.51024 5.43483C8.75388 5.53574 8.96211 5.70664 9.10862 5.92591C9.25513 6.14517 9.33333 6.40296 9.33333 6.66667C9.33333 7.02029 9.19285 7.35943 8.94281 7.60948C8.69276 7.85952 8.35362 8 8 8Z" fill="#606F8D"/>
<path d="M8 16.0001C7.43863 16.003 6.88474 15.8713 6.38471 15.6161C5.88468 15.361 5.45307 14.9897 5.126 14.5334C2.58534 11.0288 1.29667 8.39411 1.29667 6.70211C1.29667 4.92428 2.00291 3.21926 3.26003 1.96214C4.51715 0.705021 6.22217 -0.0012207 8 -0.0012207C9.77784 -0.0012207 11.4829 0.705021 12.74 1.96214C13.9971 3.21926 14.7033 4.92428 14.7033 6.70211C14.7033 8.39411 13.4147 11.0288 10.874 14.5334C10.5469 14.9897 10.1153 15.361 9.61529 15.6161C9.11526 15.8713 8.56137 16.003 8 16.0001ZM8 1.45411C6.60828 1.4557 5.27401 2.00926 4.28992 2.99336C3.30582 3.97746 2.75226 5.31172 2.75067 6.70345C2.75067 8.04345 4.01267 10.5214 6.30334 13.6808C6.4978 13.9486 6.75292 14.1666 7.04781 14.317C7.34271 14.4673 7.669 14.5456 8 14.5456C8.331 14.5456 8.6573 14.4673 8.95219 14.317C9.24709 14.1666 9.50221 13.9486 9.69667 13.6808C11.9873 10.5214 13.2493 8.04345 13.2493 6.70345C13.2477 5.31172 12.6942 3.97746 11.7101 2.99336C10.726 2.00926 9.39173 1.4557 8 1.45411Z" fill="#606F8D"/>
</g>
<defs>
<clipPath id="clip0_197_7484">
<rect width="16" height="16" fill="white"/>
</clipPath>
</defs>
</svg>
