<svg width="16" height="16" viewBox="0 0 16 16" fill="none" xmlns="http://www.w3.org/2000/svg">
<g clip-path="url(#clip0_1650_22507)">
<path d="M10.0003 2.56592C10.0024 2.6985 10.0432 2.82757 10.1177 2.93725C10.1922 3.04694 10.2972 3.13244 10.4196 3.18326C11.5145 3.66498 12.4403 4.46293 13.0783 5.47466C13.7163 6.48639 14.0374 7.66572 14.0003 8.86126C13.9745 10.4526 13.3176 11.9684 12.1741 13.0754C11.0307 14.1824 9.49428 14.7897 7.90298 14.7639C6.31168 14.7381 4.79581 14.0812 3.68885 12.9377C2.58188 11.7943 1.9745 10.2579 2.00031 8.66659C2.00185 7.50407 2.34108 6.36704 2.97675 5.39371C3.61242 4.42038 4.51716 3.65267 5.58098 3.18392C5.70351 3.13281 5.80845 3.04704 5.88294 2.93714C5.95743 2.82725 5.99822 2.698 6.00031 2.56526C6.00048 2.45606 5.97383 2.3485 5.9227 2.25202C5.87156 2.15554 5.79751 2.07309 5.70706 2.01193C5.6166 1.95077 5.5125 1.91276 5.40392 1.90125C5.29533 1.88974 5.18558 1.90508 5.08431 1.94592C3.53717 2.61668 2.26846 3.80015 1.49189 5.29698C0.715316 6.79382 0.478331 8.51255 0.820852 10.1637C1.16337 11.8148 2.06447 13.2975 3.37236 14.3619C4.68025 15.4263 6.31502 16.0075 8.00131 16.0075C9.6876 16.0075 11.3224 15.4263 12.6303 14.3619C13.9382 13.2975 14.8393 11.8148 15.1818 10.1637C15.5243 8.51255 15.2873 6.79382 14.5107 5.29698C13.7342 3.80015 12.4655 2.61668 10.9183 1.94592C10.8169 1.90464 10.7069 1.88897 10.5979 1.90031C10.489 1.91165 10.3846 1.94964 10.2938 2.01093C10.2031 2.07221 10.1289 2.15491 10.0777 2.25171C10.0265 2.3485 9.9999 2.45642 10.0003 2.56592Z" fill="#606F8D"/>
<path d="M8.66634 0.666667C8.66634 0.298477 8.36786 0 7.99967 0C7.63148 0 7.33301 0.298477 7.33301 0.666667V4.66667C7.33301 5.03486 7.63148 5.33333 7.99967 5.33333C8.36786 5.33333 8.66634 5.03486 8.66634 4.66667V0.666667Z" fill="#606F8D"/>
</g>
<defs>
<clipPath id="clip0_1650_22507">
<rect width="16" height="16" fill="white"/>
</clipPath>
</defs>
</svg>
