<svg width="17" height="16" viewBox="0 0 17 16" fill="none" xmlns="http://www.w3.org/2000/svg">
<g clip-path="url(#clip0_689_9688)">
<path d="M8.256 15.7767C7.93867 15.7767 7.61934 15.6647 7.36467 15.4387L4.866 13.334H2.91734C1.44667 13.334 0.250672 12.138 0.250672 10.6673V2.66667C0.250005 1.196 1.446 0 2.91667 0H13.5833C15.054 0 16.25 1.196 16.25 2.66667V10.6667C16.25 12.1373 15.054 13.3333 13.5833 13.3333H11.682L9.11734 15.4533C8.876 15.668 8.56734 15.776 8.25534 15.776L8.256 15.7767ZM2.91667 1.33333C2.18134 1.33333 1.58334 1.93133 1.58334 2.66667V10.6667C1.58334 11.402 2.18134 12 2.91667 12H5.10934C5.26667 12 5.41867 12.0553 5.53934 12.1567L8.23734 14.43L11.0173 12.1527C11.1373 12.054 11.2873 12 11.4427 12H13.584C14.3193 12 14.9173 11.402 14.9173 10.6667V2.66667C14.9173 1.93133 14.3193 1.33333 13.584 1.33333H2.91667Z" fill="white"/>
</g>
<defs>
<clipPath id="clip0_689_9688">
<rect width="16" height="16" fill="white" transform="translate(0.25)"/>
</clipPath>
</defs>
</svg>
