<svg width="17" height="16" viewBox="0 0 17 16" fill="none" xmlns="http://www.w3.org/2000/svg">
<g clip-path="url(#clip0_689_9693)">
<path d="M13.1387 9.77804C12.6346 9.77845 12.1382 9.90151 11.6923 10.1366C11.2464 10.3717 10.8645 10.7117 10.5793 11.1274L6.24 9.16804C6.5482 8.4238 6.5494 7.58784 6.24333 6.84271L10.5767 4.87338C10.9992 5.48455 11.6269 5.92402 12.3457 6.11207C13.0646 6.30013 13.827 6.22431 14.4947 5.89838C15.1625 5.57244 15.6913 5.01798 15.9852 4.33555C16.2792 3.65313 16.3188 2.88796 16.0969 2.17883C15.875 1.46969 15.4063 0.863574 14.7758 0.470413C14.1453 0.0772522 13.3948 -0.0769087 12.6604 0.0358936C11.9259 0.148696 11.2563 0.52099 10.7728 1.08524C10.2894 1.6495 10.0242 2.36834 10.0253 3.11138C10.0282 3.28724 10.046 3.46255 10.0787 3.63538L5.472 5.72871C5.02956 5.31419 4.47567 5.03793 3.87838 4.93388C3.28109 4.82983 2.66641 4.90252 2.10987 5.14301C1.55332 5.38351 1.07915 5.78133 0.745593 6.28762C0.41204 6.7939 0.233639 7.38659 0.232307 7.99288C0.230975 8.59916 0.40677 9.19263 0.738095 9.70037C1.06942 10.2081 1.54184 10.608 2.09733 10.851C2.65281 11.0939 3.26716 11.1693 3.8649 11.0679C4.46264 10.9664 5.01774 10.6926 5.462 10.28L10.0807 12.3654C10.0486 12.5381 10.031 12.7131 10.028 12.8887C10.0279 13.5041 10.2102 14.1058 10.5521 14.6175C10.8939 15.1293 11.3798 15.5282 11.9484 15.7637C12.5169 15.9993 13.1426 16.061 13.7462 15.941C14.3498 15.8209 14.9042 15.5246 15.3394 15.0894C15.7745 14.6543 16.0709 14.0998 16.1909 13.4962C16.3109 12.8926 16.2493 12.267 16.0137 11.6984C15.7781 11.1299 15.3792 10.6439 14.8675 10.3021C14.3557 9.96029 13.7541 9.77791 13.1387 9.77804ZM13.1387 1.33338C13.4903 1.33324 13.8342 1.43741 14.1266 1.6327C14.4191 1.82799 14.6471 2.10563 14.7818 2.4305C14.9165 2.75538 14.9518 3.1129 14.8832 3.45784C14.8147 3.80278 14.6454 4.11965 14.3968 4.36838C14.1482 4.6171 13.8314 4.78651 13.4864 4.85516C13.1415 4.92382 12.784 4.88865 12.4591 4.7541C12.1341 4.61954 11.8564 4.39165 11.661 4.09925C11.4656 3.80684 11.3613 3.46306 11.3613 3.11138C11.3617 2.64005 11.549 2.18811 11.8822 1.85477C12.2155 1.52142 12.6673 1.33391 13.1387 1.33338ZM3.36133 9.77804C3.00965 9.77818 2.66582 9.67401 2.37334 9.47872C2.08087 9.28343 1.85287 9.00579 1.7182 8.68092C1.58352 8.35604 1.54822 7.99852 1.61674 7.65358C1.68527 7.30864 1.85456 6.99177 2.10319 6.74304C2.35182 6.49432 2.66863 6.32491 3.01355 6.25626C3.35846 6.1876 3.71599 6.22277 4.04092 6.35732C4.36585 6.49188 4.64357 6.71977 4.83897 7.01217C5.03437 7.30458 5.13866 7.64836 5.13866 8.00004C5.13813 8.47132 4.95073 8.92315 4.61755 9.25646C4.28437 9.58977 3.83261 9.77734 3.36133 9.77804ZM13.1387 14.6667C12.787 14.6667 12.4432 14.5624 12.1509 14.3671C11.8585 14.1717 11.6306 13.894 11.496 13.5691C11.3614 13.2442 11.3262 12.8867 11.3948 12.5418C11.4634 12.1969 11.6328 11.8801 11.8814 11.6315C12.1301 11.3828 12.4469 11.2135 12.7918 11.1449C13.1367 11.0763 13.4942 11.1115 13.8191 11.2461C14.144 11.3806 14.4216 11.6085 14.617 11.9009C14.8124 12.1933 14.9167 12.5371 14.9167 12.8887C14.9163 13.3602 14.7289 13.8122 14.3955 14.1456C14.0621 14.4789 13.6101 14.6664 13.1387 14.6667Z" fill="#2A3855"/>
</g>
<defs>
<clipPath id="clip0_689_9693">
<rect width="16" height="16" fill="white" transform="translate(0.25)"/>
</clipPath>
</defs>
</svg>
