<svg width="588" height="424" viewBox="0 0 588 424" fill="none" xmlns="http://www.w3.org/2000/svg">
<g opacity="0.7">
<g clip-path="url(#clip0_1064_37028)">
<g opacity="0.58">
<path d="M532.517 116.823C530.642 112.114 526.062 108.794 520.681 108.794C517.688 108.794 514.952 109.82 512.791 111.541C512.035 106.545 507.712 102.711 502.497 102.711C500.169 102.711 498.038 103.481 496.3 104.764C494.924 98.3645 489.241 93.5649 482.424 93.5649C474.82 93.5649 468.623 99.5417 468.26 107.058C467.142 106.651 465.948 106.424 464.693 106.424C460.914 106.424 457.604 108.447 455.775 111.465C454.263 111.012 452.661 110.756 451.013 110.756C445.844 110.756 441.249 113.125 438.21 116.838H532.502L532.517 116.823Z" fill="white"/>
<path d="M233.031 149.318C231.081 146.783 228.013 145.138 224.551 145.138C223.281 145.138 222.072 145.364 220.939 145.772C220.153 144.353 218.641 143.402 216.903 143.402C216.389 143.402 215.905 143.493 215.452 143.643C214.741 139.885 211.446 137.048 207.486 137.048C205.883 137.048 204.402 137.516 203.132 138.316C201.167 133.426 196.391 129.969 190.798 129.969C185.205 129.969 180.217 133.576 178.343 138.633C176.952 137.878 175.365 137.455 173.687 137.455C169.606 137.455 166.114 139.946 164.648 143.477C163.771 143.327 162.864 143.236 161.942 143.236C156.773 143.236 152.178 145.606 149.139 149.318H233.046H233.031Z" fill="white"/>
<path d="M302.079 208.166C299.041 203.532 293.796 200.483 287.84 200.483C284.757 200.483 281.87 201.313 279.376 202.747C276.821 199.955 273.163 198.174 269.067 198.174C267.268 198.174 265.545 198.521 263.973 199.14C263.504 191.88 257.473 186.115 250.081 186.115C247.572 186.115 245.229 186.779 243.204 187.941C240.166 181.511 233.636 177.059 226.048 177.059C216.374 177.059 208.408 184.289 207.229 193.631C202.694 193.692 198.764 196.287 196.799 200.061C196.633 200.061 196.466 200.031 196.3 200.031C189.392 200.031 183.24 203.2 179.189 208.151H302.064L302.079 208.166Z" fill="white"/>
</g>
<path d="M166.719 430.259H274.872C275.643 428.644 276.096 426.848 276.096 424.931C276.096 418.124 270.564 412.6 263.747 412.6C263.217 412.6 262.719 412.645 262.205 412.706C260.784 409.053 257.247 406.457 253.075 406.457C252.485 406.457 251.896 406.517 251.337 406.623C251.337 406.321 251.382 406.019 251.382 405.718C251.382 395.756 243.295 387.666 233.304 387.666C230.583 387.666 228.028 388.285 225.716 389.357C224.189 378.294 214.696 369.751 203.193 369.751C194.759 369.751 187.413 374.339 183.483 381.146C180.399 379.033 176.665 377.796 172.63 377.796C162.366 377.796 153.992 385.84 153.433 395.952C150.848 396.435 148.46 397.462 146.389 398.926C144.091 397.733 141.476 397.039 138.695 397.039C129.49 397.039 122.023 404.495 122.023 413.687C122.023 413.822 122.038 413.958 122.038 414.094C116.717 415.468 112.787 420.282 112.787 426.018C112.787 427.512 113.059 428.93 113.558 430.259H166.689H166.719Z" fill="#99A1F2"/>
<path d="M675.572 253.445H433.359V413.158H675.572V253.445Z" fill="#BFC4F8"/>
<path d="M563.142 129.788H302.065L183.83 253.445H444.892L563.142 129.788Z" fill="#C2C7F6"/>
<path d="M433.359 253.445H207.139V413.158H433.359V253.445Z" fill="#CED3FF"/>
<path d="M319.191 129.788L200.956 253.445H437.803L319.569 129.788H319.191Z" fill="#CED3FF"/>
<path d="M319.191 140.73H319.569L427.343 253.445H437.803L319.569 129.788H319.191L200.956 253.445H211.416L319.191 140.73Z" fill="#99A1F2"/>
<path d="M302.065 129.788H563.142L681.376 253.445H420.299L302.065 129.788Z" fill="#FEFFFF"/>
<path d="M320 130H580.863L699 253H438.138L320 130Z" fill="#ACB4FF"/>
<path d="M332.326 206.113H302.231V242.185H332.326V206.113Z" fill="#EBEDFF" stroke="white" stroke-width="2.72" stroke-miterlimit="10"/>
<path d="M317.271 206.113V242.185" stroke="white" stroke-width="2.72" stroke-miterlimit="10"/>
<path d="M302.231 223.938H332.326" stroke="white" stroke-width="2.72" stroke-miterlimit="10"/>
<path d="M267.586 345.27H227.137V291.539C227.137 280.386 236.191 271.345 247.361 271.345C258.532 271.345 267.586 280.386 267.586 291.539V345.27Z" fill="#EBEDFF" stroke="white" stroke-width="2.72" stroke-miterlimit="10"/>
<path d="M247.361 271.345V345.27" stroke="white" stroke-width="2.72" stroke-miterlimit="10"/>
<path d="M227.137 296.792H267.586" stroke="white" stroke-width="2.72" stroke-miterlimit="10"/>
<path d="M227.137 320.744H267.586" stroke="white" stroke-width="2.72" stroke-miterlimit="10"/>
<path d="M273.572 342.991H221.136V352.062H273.572V342.991Z" fill="#C3CAFE"/>
<path d="M273.572 349.557H221.136V352.062H273.572V349.557Z" fill="#99A1F2"/>
<path d="M413.361 345.27H372.912V291.539C372.912 280.386 381.966 271.345 393.136 271.345C404.307 271.345 413.361 280.386 413.361 291.539V345.27Z" fill="#EBEDFF" stroke="white" stroke-width="2.72" stroke-miterlimit="10"/>
<path d="M393.136 271.345V345.27" stroke="white" stroke-width="2.72" stroke-miterlimit="10"/>
<path d="M372.912 296.792H413.361" stroke="white" stroke-width="2.72" stroke-miterlimit="10"/>
<path d="M372.912 320.744H413.361" stroke="white" stroke-width="2.72" stroke-miterlimit="10"/>
<path d="M419.362 342.991H366.926V352.062H419.362V342.991Z" fill="#C3CAFE"/>
<path d="M419.362 349.557H366.926V352.062H419.362V349.557Z" fill="#99A1F2"/>
<path d="M352.46 273.518H288.022V413.158H352.46V273.518Z" fill="#ACB4FF"/>
<path d="M346.232 279.752H294.28V413.158H346.232V279.752Z" fill="#99A1F2"/>
<path d="M343.103 282.876H297.394V413.158H343.103V282.876Z" fill="#ACB4FF"/>
<path d="M335.485 351.307C337.689 351.307 339.476 349.524 339.476 347.323C339.476 345.122 337.689 343.338 335.485 343.338C333.282 343.338 331.495 345.122 331.495 347.323C331.495 349.524 333.282 351.307 335.485 351.307Z" fill="#99A1F2"/>
<g opacity="0.28">
<path d="M565.001 311.281H549.643V316.639H565.001V311.281Z" fill="#979EE7"/>
<path d="M582.989 311.281H573.511V316.639H582.989V311.281Z" fill="#979EE7"/>
<path d="M528.935 351.428H514.001V356.786H528.935V351.428Z" fill="#979EE7"/>
<path d="M486.052 293.698H476.574V299.056H486.052V293.698Z" fill="#979EE7"/>
<path d="M596.079 395.152H586.601V400.51H596.079V395.152Z" fill="#979EE7"/>
<path d="M554.39 268.583H541.738V273.941H554.39V268.583Z" fill="#979EE7"/>
<path d="M576.005 303.523H560.647V308.881H576.005V303.523Z" fill="#979EE7"/>
<path d="M485.871 380.905H470.513V386.263H485.871V380.905Z" fill="#979EE7"/>
<path d="M466.598 380.905H457.121V386.263H466.598V380.905Z" fill="#979EE7"/>
<path d="M479.522 373.147H464.165V378.505H479.522V373.147Z" fill="#979EE7"/>
</g>
<path d="M348.47 144.972H573.617" stroke="#99A1F2" stroke-width="1.03" stroke-miterlimit="10"/>
<path d="M372.292 167.958H597.439" stroke="#99A1F2" stroke-width="1.03" stroke-miterlimit="10"/>
<path d="M396.114 190.945H621.261" stroke="#99A1F2" stroke-width="1.03" stroke-miterlimit="10"/>
<path d="M419.936 213.931H645.099" stroke="#99A1F2" stroke-width="1.03" stroke-miterlimit="10"/>
<path d="M443.774 236.918H668.921" stroke="#99A1F2" stroke-width="1.03" stroke-miterlimit="10"/>
<path d="M580.237 420.599H194.457V430.259H580.237V420.599Z" fill="#7C84D5"/>
<path d="M580.237 413.158H207.139V420.599H580.237V413.158Z" fill="#B5BEFF"/>
<path d="M501.848 430.259H630.467C632.9 427.044 634.366 423.044 634.366 418.697C634.366 409.521 627.912 401.854 619.311 399.952C618.873 390.368 610.983 382.731 601.278 382.731C595.534 382.731 590.41 385.417 587.1 389.598C584.092 387.636 580.494 386.489 576.625 386.489C575.476 386.489 574.373 386.61 573.284 386.791C570.76 376.98 561.872 369.736 551.261 369.736C539.758 369.736 530.265 378.263 528.738 389.342C526.426 388.27 523.871 387.651 521.15 387.651C511.174 387.651 503.072 395.726 503.072 405.702C503.072 406.487 503.133 407.242 503.238 407.996C502.966 407.981 502.694 407.951 502.422 407.951C498.734 407.951 495.529 409.989 493.852 412.992C492.854 412.736 491.796 412.57 490.708 412.57C483.89 412.57 478.358 418.094 478.358 424.901C478.358 426.817 478.812 428.613 479.583 430.228H501.848V430.259Z" fill="#EEF0FF"/>
<path d="M605.889 430.259H545.381C544.232 428.749 543.552 426.863 543.552 424.825C543.552 420.508 546.59 416.901 550.641 416.011C550.853 411.498 554.556 407.906 559.121 407.906C561.827 407.906 564.23 409.174 565.787 411.136C567.208 410.215 568.901 409.672 570.715 409.672C571.259 409.672 571.773 409.732 572.287 409.823C573.481 405.204 577.653 401.793 582.641 401.793C588.052 401.793 592.511 405.808 593.237 411.015C594.325 410.517 595.534 410.23 596.804 410.23C601.505 410.23 605.314 414.034 605.314 418.728C605.314 419.09 605.284 419.452 605.239 419.814C605.36 419.814 605.496 419.799 605.616 419.799C607.355 419.799 608.866 420.75 609.652 422.169C610.121 422.048 610.62 421.972 611.134 421.972C614.338 421.972 616.953 424.568 616.953 427.783C616.953 428.689 616.742 429.534 616.379 430.289H605.904L605.889 430.259Z" fill="#CED3FF"/>
<path d="M101.964 430.259H182.636C184.163 428.236 185.085 425.731 185.085 423.014C185.085 417.264 181.034 412.449 175.638 411.257C175.366 405.25 170.408 400.45 164.331 400.45C160.718 400.45 157.514 402.14 155.443 404.767C153.554 403.544 151.301 402.82 148.883 402.82C148.173 402.82 147.462 402.895 146.782 403.016C145.195 396.873 139.632 392.315 132.966 392.315C125.756 392.315 119.801 397.673 118.848 404.616C117.397 403.952 115.795 403.559 114.087 403.559C107.829 403.559 102.75 408.63 102.75 414.879C102.75 415.362 102.795 415.845 102.856 416.328C102.69 416.328 102.523 416.298 102.342 416.298C100.029 416.298 98.0189 417.581 96.9759 419.467C96.3411 419.301 95.6911 419.211 95.0109 419.211C90.7332 419.211 87.2566 422.682 87.2566 426.953C87.2566 428.146 87.5438 429.278 88.0275 430.289H101.994L101.964 430.259Z" fill="#CED3FF"/>
<path d="M557.392 500.679C559.447 490.718 565.252 485.104 573.444 479.217C579.763 474.674 587.593 470.448 591.099 463.083C598.823 446.813 583.617 440.021 576.921 428.097C569.877 415.555 576.18 401.187 572.658 387.995C570.587 380.268 566.657 379.015 560.279 375.348C555.82 372.782 551.194 369.688 547.763 365.794C542.85 360.24 539.661 353.025 532.269 350.716C518.968 346.55 512.271 360.632 515.204 372.148C518.151 383.724 524.712 391.618 520.041 403.828C517.683 410.001 514.72 415.268 516.715 421.924C518.68 428.52 523.85 433.32 528.974 437.636C538.935 446.043 546.07 452.578 545.48 465.966C545.072 475.429 543.984 484.183 549.849 492.318C552.177 495.533 555.003 497.767 557.422 500.664L557.392 500.679Z" fill="#99A1F2"/>
<path d="M554.172 497.917C554.172 497.917 569.061 440.157 535.036 368.239" stroke="#7C84D5" stroke-width="0.52" stroke-miterlimit="10"/>
<path d="M556.409 444.368C556.409 444.368 544.997 431.569 528.717 423.811" stroke="#7C84D5" stroke-width="0.52" stroke-miterlimit="10"/>
<path d="M553.083 422.211C553.083 422.211 555.215 406.982 564.148 397.7" stroke="#7C84D5" stroke-width="0.52" stroke-miterlimit="10"/>
<path d="M546.191 396.191C546.191 396.191 534.234 382.049 523.608 375.136" stroke="#7C84D5" stroke-width="0.52" stroke-miterlimit="10"/>
<path d="M562.759 512.12C562.759 512.12 554.445 445.62 468.604 368.933" stroke="#7C84D5" stroke-width="0.88" stroke-miterlimit="10"/>
<path d="M486.697 386.335C486.697 386.335 480.152 377.476 490.083 368.39C490.083 368.39 497.973 377.853 486.697 386.335Z" fill="#7C84D5"/>
<path d="M498.835 399.134C498.835 399.134 491.504 389.203 502.629 379.03C502.629 379.03 511.471 389.64 498.835 399.134Z" fill="#7C84D5"/>
<path d="M509.96 411.722C509.96 411.722 502.054 401.021 514.041 390.048C514.041 390.048 523.579 401.489 509.96 411.722Z" fill="#7C84D5"/>
<path d="M522.037 427.177C522.037 427.177 512.998 414.936 526.708 402.394C526.708 402.394 537.622 415.48 522.037 427.177Z" fill="#7C84D5"/>
<path d="M532.21 441.772C532.21 441.772 524.335 426.618 541.733 415.102C541.733 415.102 551.543 431.508 532.21 441.772Z" fill="#7C84D5"/>
<path d="M493.454 393.157C493.454 393.157 485.231 383.95 472.972 392.719C472.972 392.719 481.558 403.541 493.454 393.157Z" fill="#7C84D5"/>
<path d="M505.909 406.318C505.909 406.318 496.522 397.338 484.384 407.556C484.384 407.556 494.285 418.212 505.909 406.318Z" fill="#7C84D5"/>
<path d="M516.339 418.483C516.339 418.483 505.591 409.593 493.393 421.456C493.393 421.456 504.805 432.097 516.339 418.483Z" fill="#7C84D5"/>
<path d="M476.947 376.313C476.947 376.313 464.84 378.728 460.32 364.36C460.32 364.36 473.697 360.858 476.947 376.313Z" fill="#7C84D5"/>
<path opacity="0.22" d="M48.9852 224.3C68.4239 213.554 103.129 185.164 93.2286 158.752C85.8522 139.07 58.2511 144.323 51.1921 160.804C47.2016 170.117 47.2167 180.123 41.9262 188.711C37.7997 195.428 33.1743 198.854 30.9069 206.34C27.9443 216.06 36.7264 236.782 48.9852 224.3Z" fill="#ACB4FF"/>
<path opacity="0.22" d="M402.008 82.2455C402.522 84.1321 402.22 86.2904 401.721 88.5694C401.026 91.6936 398.26 94.5462 396.249 96.5234C392.092 100.629 388.011 100.961 382.796 101.881C377.355 102.847 372.321 104.719 367.182 106.953C361.861 109.262 355.513 108.869 349.995 107.541C346.02 106.59 341.168 102.244 340.004 97.5195C339.278 94.6066 339.43 90.3202 341.138 87.9506C344.947 82.6379 352.097 80.6456 357.659 80.4645C364.295 80.2381 371.067 81.6568 377.627 80.057C382.63 78.8344 387.452 76.5856 392.637 76.6158C395.267 76.6309 397.988 77.2497 400.119 79.1665C401.132 80.0721 401.721 81.0984 402.023 82.2304L402.008 82.2455Z" fill="#ACB4FF"/>
<path d="M80.0616 341.829H44.3888C44.3888 341.829 35.0927 351.353 39.3402 378.671C43.6935 406.668 41.9854 439.314 40.2018 489.634H51.4478L63.7519 385.674L69.4807 489.634H79.2454C79.2454 489.634 81.286 456.068 83.1603 426.365C85.6242 387.289 85.0347 348.244 80.0616 341.829Z" fill="#253147"/>
<path d="M50.4047 342.206C50.4047 342.206 45.9758 360.544 47.049 395.318C48.1373 430.093 44.7212 489.272 44.7212 489.272" stroke="#1C2635" stroke-width="0.38" stroke-miterlimit="10"/>
<path d="M48.1826 252.116C46.0816 254.29 44.9025 257.49 44.5549 260.267C44.1014 263.949 45.6281 266.862 44.9328 270.53C44.0258 275.314 39.083 277.865 37.6924 282.438C36.3924 286.725 38.5691 290.241 40.0353 294.135C40.776 296.097 41.3353 298.029 41.3957 300.097C41.4864 302.874 42.0003 304.353 44.4188 306.24C48.228 309.213 53.4277 308.594 56.0579 304.64C57.4183 302.587 57.7508 300.263 60.0181 298.799C61.7413 297.682 63.8575 297.441 65.9133 297.365C70.0852 297.229 74.8919 297.924 77.8395 294.543C79.5173 292.611 80.4394 289.758 79.8347 287.283C79.2755 284.959 77.3558 282.861 76.2674 280.718C74.4233 277.065 74.4082 273.533 74.4233 269.579C74.4536 264.508 73.2897 258.546 69.4957 254.562C66.7295 251.664 62.8599 250.049 58.7787 249.354C54.4103 248.615 51.1151 249.083 48.1977 252.101L48.1826 252.116Z" fill="#9E3834"/>
<path d="M90.8541 314.118C90.8541 314.118 94.2701 325.725 95.5399 329.543C97.1421 334.358 105.652 357.903 106.967 359.412C108.297 360.922 113.089 365.827 113.089 367.819C113.089 369.811 109.854 373.056 108.63 373.434C107.406 373.811 102.508 367.744 101.692 363.563C100.09 355.428 90.9598 341.754 85.8205 332.185C82.2079 325.453 78.9883 317.348 78.9883 317.348L90.8691 314.118H90.8541Z" fill="#EB855D"/>
<path d="M77.6732 286.83C77.6732 286.83 84.052 289.638 92.6226 314.918C92.6226 314.918 87.317 321.921 80.001 322.842C80.001 322.842 63.8425 297.878 77.6732 286.83Z" fill="#B53C3D"/>
<path d="M83.0999 310.224C82.8581 314.375 78.9733 318.088 78.9885 323.476C78.9885 330.736 83.2662 338.478 80.1372 341.784C79.9558 341.98 79.6989 342.146 79.3512 342.297C75.1037 344.274 59.0661 343.942 50.163 342.946C47.3363 342.629 45.2353 342.252 44.4493 341.859C40.5343 339.882 44.812 329.317 43.5574 318.692C43.2854 316.352 42.6807 313.817 42.0005 311.205C41.411 308.972 40.7459 306.693 40.1564 304.459C38.3274 297.426 37.2391 290.905 41.411 287.902C48.9235 282.484 60.7137 281.789 60.7137 281.789C70.7958 282.046 72.519 283.525 77.1746 286.438C81.2104 288.989 83.6138 301.471 83.115 310.224H83.0999Z" fill="#D94849"/>
<path d="M79.336 342.297C75.0885 344.274 59.0509 343.942 50.1478 342.946C47.3212 342.629 45.2201 342.252 44.4341 341.859C40.5192 339.882 44.7969 329.317 43.5423 318.692C43.2702 316.352 42.6656 313.817 41.9854 311.206C43.1795 309.108 44.7817 307.372 46.8979 306.21C46.8979 306.21 41.29 337.694 53.2163 339.565C64.2204 341.286 71.5969 344.002 79.3512 342.297H79.336Z" fill="#B53C3D"/>
<path d="M56.6778 268.341C56.6778 268.341 56.2999 282.302 56.3301 282.936C56.3754 283.963 57.5091 290.513 66.5936 295.056C66.5936 295.056 69.9191 290.362 68.7854 282.74C69.3447 273.805 69.3749 268.583 69.3749 268.583L56.6778 268.341Z" fill="#F97F5F"/>
<path d="M75.6932 258.199C75.6932 258.199 77.0536 263.33 76.3129 269.368C75.6025 275.269 71.5212 281.487 66.7296 281.487C60.381 281.487 57.0707 274.288 56.587 270.137C56.587 270.137 54.6825 269.926 53.8813 267.526C53.2162 265.534 55.4231 264.266 56.9044 265.428C56.9044 265.428 57.2823 256.312 61.3938 253.807C65.5052 251.316 73.32 256.448 75.6932 258.184V258.199Z" fill="#FF8B66"/>
<path d="M28.1999 371.079C28.1999 374.294 25.8267 378.173 25.4488 380.905C25.0709 383.652 27.7162 388.844 27.7162 388.844C27.7162 388.844 29.5149 390.066 30.8451 389.976C32.1753 389.885 29.9986 387.425 30.18 385.719C30.3765 384.014 31.6009 379.863 32.1602 379.486C32.7345 379.109 32.7346 382.414 33.8682 382.791C35.0019 383.169 35.1077 378.626 35.5007 377.69C35.8937 376.754 35.3798 371.743 35.0019 368.996C34.624 366.25 42.5748 314.752 42.5748 314.752C42.5748 314.752 36.8309 313.047 33.9892 311.779C31.8276 314.798 30.0591 325.408 29.5603 331.053C28.4266 343.957 28.1848 369.298 28.1848 371.079H28.1999Z" fill="#EB855D"/>
<path d="M38.8715 290.347C38.8715 290.347 31.7823 298.195 29.1975 320.805C29.1975 320.805 35.5158 325.74 43.7387 323.461C43.7387 323.461 49.3466 303.9 48.2583 296.731C47.17 289.562 40.9877 286.83 38.8564 290.332L38.8715 290.347Z" fill="#E5535A"/>
<path d="M304.513 342.674C304.513 342.674 311.376 384.482 306.886 489.257H294.461C294.461 489.257 284.364 419.996 280.223 391.047L276.867 489.257H264.789C264.789 489.257 253.831 369.344 259.952 342.674H304.513Z" fill="#253147"/>
<path d="M305.753 353.3C305.057 346.055 304.513 342.674 304.513 342.674H259.937C259.287 345.527 258.819 349.451 258.531 354.16C258.562 354.16 284.152 362.491 305.753 353.285V353.3Z" fill="#1C2635"/>
<path d="M280.207 389.463L276.988 369.057C276.988 369.057 278.212 389.991 279.618 406.669L280.207 389.463Z" fill="#1C2635"/>
<path d="M229.071 330.54C229.071 330.54 225.822 332.622 223.448 334.132C221.378 335.445 217.175 337.935 216.132 338.644C216.132 338.644 208.227 342.388 208.318 343.701C208.484 346.085 213.669 348.681 218.823 347.127C221.136 346.417 224.144 343.852 224.748 342.599C225.988 340.003 232.699 336.381 232.699 336.381L229.071 330.555V330.54Z" fill="#F97F5F"/>
<path d="M201.531 332.215C201.531 332.215 205.824 335.611 207.108 335.716C208.393 335.822 210.056 335.837 210.948 335.958C211.84 336.094 213.442 337.543 214.636 337.709C215.83 337.875 216.661 338.297 216.661 338.297C216.661 338.297 214.53 339.595 214.288 339.973C214.031 340.38 216.102 341.331 217.584 341.723C219.05 342.101 223.569 343.685 223.811 344.274C224.053 344.863 219.685 347.579 216.495 347.972C213.608 348.334 208.862 346.236 208.046 345.632C207.229 345.029 206.383 343.187 204.75 342.237C203.118 341.286 197.646 338.871 197.646 338.871L201.546 332.215H201.531Z" fill="#FF8B66"/>
<path d="M223.448 334.132C223.448 334.132 219.987 335.837 216.087 335.762C214.968 335.747 212.202 337.965 211.855 338.267C211.507 338.569 212.414 339.444 213.835 338.886C215.256 338.312 216.344 338.056 216.677 338.101C217.644 338.252 221.287 337.89 221.287 337.89L223.448 334.132Z" fill="#F97F5F"/>
<path d="M209.088 346.221C209.088 346.221 208.816 344.168 209.088 343.852C209.361 343.535 214.575 346.327 215.452 346.221C216.344 346.115 216.087 347.821 215.588 348.168C215.089 348.515 209.905 347.534 209.073 346.221H209.088Z" fill="#F97F5F"/>
<path d="M270.352 266.953C272.952 271.058 271.108 285.276 269.899 294.437C268.13 307.794 267.405 314.028 264.895 318.224C257.685 330.253 233.667 338.765 228.633 341.482C227.182 339.927 224.25 335.988 223.04 333.377C223.04 333.377 242.298 318.571 248.51 309.107C248.51 309.107 254.481 285.11 256.642 276.099C259.605 263.723 268.342 263.768 270.352 266.968V266.953Z" fill="#405584"/>
<path d="M223.04 333.362L227.651 329C227.651 329 229.933 335.233 234.09 339.278L228.633 341.482C228.633 341.482 224.748 338.569 223.04 333.377V333.362Z" fill="#596B99"/>
<path d="M121.871 342.674C121.871 342.674 115.009 384.482 119.498 489.257H131.923C131.923 489.257 142.021 419.996 146.162 391.047L149.518 489.257H161.595C161.595 489.257 172.554 369.344 166.432 342.674H121.871Z" fill="#253147"/>
<path d="M146.177 389.463L149.397 369.057C149.397 369.057 148.173 389.991 146.767 406.669L146.177 389.463Z" fill="#1C2635"/>
<path d="M129.097 352.53C129.097 352.53 125.121 414.713 125.696 489.272" stroke="#1C2635" stroke-width="0.38" stroke-miterlimit="10"/>
<path d="M128.477 363.563C128.477 363.563 140.524 359.759 139.602 351.247" stroke="#1C2635" stroke-width="0.38" stroke-miterlimit="10"/>
<path d="M156.033 266.953C153.448 271.058 155.277 285.276 156.486 294.437C158.255 307.794 158.98 314.028 161.489 318.224C168.699 330.253 192.718 338.765 197.752 341.482C199.203 339.927 202.513 335.248 203.707 332.637C203.707 332.637 184.087 318.586 177.875 309.107C177.875 309.107 171.36 285.23 169.198 276.205C166.236 263.829 158.043 263.768 156.017 266.968L156.033 266.953Z" fill="#FB9823"/>
<path d="M146.676 261.217C146.676 261.217 163.424 262.817 166.795 269.851C171.949 280.612 169.667 304.187 168.382 327.717C167.959 335.565 173.37 350.039 167.611 350.824C167.611 350.824 139.829 359.141 121.01 349.541C116.717 346.779 121.1 334.147 120.481 325.378C118.833 301.908 115.341 276.054 120.329 269.428C126.542 261.172 145.149 261.051 146.676 261.202V261.217Z" fill="#FFAA3F"/>
<path d="M121.01 349.556C116.717 346.794 121.1 334.162 120.481 325.393C119.014 304.428 116.067 281.548 119.014 272.19C124.486 275.073 129.822 278.167 129.777 279.269C129.777 279.269 130.351 308.187 127.131 318.767C123.912 329.347 120.707 344.591 123.715 350.764C122.793 350.387 121.886 349.994 121.01 349.541V349.556Z" fill="#FB9823"/>
<path d="M138.725 233.628C138.725 233.628 134.266 231.862 132.573 235.605C130.366 240.48 136.73 251.588 139.3 258.803C139.3 258.803 144.787 237.808 138.71 233.628H138.725Z" fill="#742F28"/>
<path d="M140.448 241.898C140.448 241.898 138.438 258.938 138.09 261.731C137.833 263.798 140.841 269.76 147.658 269.005C152.359 268.492 152.208 262.108 152.072 260.131C151.921 258.154 151.921 245.747 151.921 245.747L140.448 241.914V241.898Z" fill="#F97F5F"/>
<path d="M159.01 236.42C159.01 236.42 162.2 260.101 151.604 260.101C142.051 260.101 139.405 249.928 139.557 248.268C139.557 248.268 137.063 247.196 136.76 245.43C136.473 243.664 138.74 242.487 140.222 243.664C140.222 243.664 140.736 237.431 144.847 234.926C148.959 232.435 156.637 234.684 159.01 236.42Z" fill="#FF8B66"/>
<path d="M143.32 238.246C143.32 238.246 151.332 233.507 159.01 236.42C159.01 236.42 170.015 231.997 165.057 224.723C162.26 220.617 157.287 225.055 152.48 224.134C148.732 223.425 146.343 227.862 142.262 227.726C137.682 227.575 134.372 230.005 134.614 233.009C135.128 239.318 140.207 243.649 140.207 243.649C140.207 243.649 140.72 244.751 140.494 246.004C140.494 246.004 144.832 243.649 143.305 238.246H143.32Z" fill="#742F28"/>
<path d="M108.781 352.53C108.781 352.53 108.419 359.307 107.3 361.058C106.166 362.808 104.67 364.816 104.549 367.744C104.473 369.781 105.063 370.279 106.091 372.241C106.454 372.936 108.222 374.204 109.582 374.43C111.532 374.762 113.618 374.656 114.072 373.826C114.843 372.407 114.48 367.397 114.48 367.397C114.48 367.397 115.221 369.766 116.581 370.008C117.926 370.249 117.019 368.619 116.732 368.106C116.188 367.17 115.719 365.495 115.765 364.725C115.81 363.955 114.026 362.657 113.936 361.827C113.845 360.997 115.221 354.236 115.221 354.236L108.781 352.53Z" fill="#FF8B66"/>
<path d="M121.841 267.345C117.926 270.213 111.23 288.053 107.315 310.074C106.318 315.718 105.834 353.919 106.227 357.209C106.741 361.54 116.959 361.39 117.216 357.963C118.047 346.689 121.252 318.39 122.778 312.76C125.303 303.508 128.492 292.022 130.82 283.042C133.904 271.104 124.88 265.097 121.826 267.345H121.841Z" fill="#FFB64B"/>
<path d="M279.709 261.217C279.709 261.217 262.961 262.817 259.59 269.851C254.435 280.612 256.718 304.187 258.003 327.717C258.426 335.565 253.03 350.039 258.789 350.824C258.789 350.824 286.571 359.141 305.39 349.541C309.683 346.779 305.299 334.147 305.919 325.378C307.567 301.908 311.058 276.054 306.07 269.428C299.858 261.172 281.25 261.051 279.724 261.202L279.709 261.217Z" fill="#4A5F8E"/>
<path d="M305.375 349.557C309.668 346.795 305.284 334.162 305.904 325.393C307.37 304.429 310.318 281.548 307.37 272.19C301.898 275.073 296.562 278.167 296.608 279.269C296.608 279.269 296.033 308.187 299.253 318.767C302.473 329.347 305.677 344.591 302.669 350.764C303.591 350.387 304.498 349.994 305.375 349.542V349.557Z" fill="#405584"/>
<path d="M287.947 230.624C287.947 230.624 293.177 230.986 294.492 234.88C296.971 242.185 290.652 254.018 285.967 256.991C285.967 256.991 281.87 234.805 287.932 230.624H287.947Z" fill="#442D24"/>
<path d="M285.936 241.898C285.936 241.898 287.569 257.927 287.916 260.704C288.173 262.772 285.543 269.745 278.726 268.99C274.025 268.477 274.176 262.093 274.312 260.116C274.464 258.138 274.464 245.732 274.464 245.732L285.936 241.898Z" fill="#F97F5F"/>
<path d="M267.374 236.42C267.374 236.42 264.185 260.101 274.781 260.101C284.334 260.101 286.979 249.928 286.828 248.268C286.828 248.268 288.853 246.532 289.141 244.766C289.428 243 287.629 242.487 286.163 243.664C286.163 243.664 287.1 235.559 282.989 233.054C278.877 230.549 267.661 232.601 267.374 236.42Z" fill="#FF8B66"/>
<path d="M285.407 235.861C285.407 235.861 273.904 238.925 267.374 236.42C263.686 235.016 262.96 221.719 271.743 222.881C283.064 224.376 288.521 229.537 289.186 230.73C289.851 231.922 287.387 236.375 285.422 235.861H285.407Z" fill="#442D24"/>
<path d="M279.376 233.824C279.376 233.824 278.167 238.714 282.928 240.752C284.878 241.582 285.679 246.276 285.679 246.276C285.679 246.276 285.921 244.223 286.178 243.649C286.435 243.076 289.534 240.178 289.534 240.178C289.534 240.178 292.27 234.88 287.947 233.522C283.623 232.164 279.376 233.809 279.376 233.809V233.824Z" fill="#442D24"/>
<path d="M277.607 267.617C278.197 267.723 280.298 269.217 280.298 269.217C280.298 269.217 278.273 273.05 277.245 273.322C276.217 273.609 275.189 269.323 275.189 268.885C275.189 268.447 276.821 267.466 277.607 267.602V267.617Z" fill="#333A44"/>
<path d="M277.608 267.617L280.162 272.688C280.162 272.688 287.478 268.447 289.519 261.912L287.886 260.463C287.886 260.463 285.589 265.896 277.608 267.632V267.617Z" fill="#596B99"/>
<path d="M274.282 261.504C274.282 261.504 274.463 265.534 277.608 267.617L275.129 271.345C275.129 271.345 273.103 266.772 273.466 262.274L274.282 261.504Z" fill="#596B99"/>
<path d="M276.549 271.345L271.44 319.522L274.947 324.623L278.953 320.276L277.744 271.345H276.549Z" fill="#333A44"/>
<path d="M322.396 371.02L311.779 373.041C310.082 373.364 308.968 374.999 309.292 376.694L310.141 381.142C310.464 382.837 312.102 383.949 313.8 383.626L324.416 381.606C326.114 381.283 327.228 379.647 326.904 377.952L326.055 373.504C325.732 371.809 324.094 370.697 322.396 371.02Z" stroke="#5E3C2D" stroke-width="1.41" stroke-miterlimit="10"/>
<path d="M338.227 377.375L293.333 385.715C291.093 386.131 289.614 388.282 290.031 390.52L295.592 420.359C296.008 422.597 298.163 424.073 300.403 423.657L345.297 415.316C347.538 414.9 349.016 412.749 348.599 410.512L343.039 380.672C342.622 378.435 340.468 376.958 338.227 377.375Z" fill="#5E3C2D"/>
<path d="M338.342 377.267L293.448 385.607C291.208 386.023 289.729 388.174 290.146 390.412L295.707 420.252C296.123 422.489 298.278 423.965 300.518 423.549L345.412 415.208C347.653 414.792 349.131 412.641 348.714 410.404L343.154 380.564C342.737 378.327 340.583 376.85 338.342 377.267Z" fill="#5E3C2D"/>
<path d="M338.454 377.141L293.56 385.481C291.319 385.898 289.841 388.049 290.258 390.286L295.818 420.126C296.235 422.363 298.39 423.839 300.63 423.423L345.524 415.082C347.765 414.666 349.243 412.515 348.826 410.278L343.266 380.438C342.849 378.201 340.694 376.725 338.454 377.141Z" fill="#5E3C2D"/>
<path d="M338.569 377.048L293.675 385.388C291.435 385.805 289.956 387.956 290.373 390.193L295.933 420.033C296.35 422.27 298.505 423.746 300.745 423.33L345.639 414.989C347.88 414.573 349.358 412.422 348.941 410.185L343.381 380.345C342.964 378.108 340.81 376.632 338.569 377.048Z" fill="#5E3C2D"/>
<path d="M338.681 376.922L293.787 385.263C291.546 385.679 290.068 387.83 290.485 390.067L296.045 419.907C296.462 422.144 298.616 423.62 300.857 423.204L345.751 414.864C347.991 414.447 349.47 412.296 349.053 410.059L343.492 380.219C343.076 377.982 340.921 376.506 338.681 376.922Z" fill="#5E3C2D"/>
<path d="M338.795 376.814L293.902 385.154C291.661 385.571 290.183 387.722 290.6 389.959L296.16 419.799C296.577 422.036 298.731 423.512 300.972 423.096L345.866 414.756C348.106 414.339 349.585 412.188 349.168 409.951L343.607 380.111C343.19 377.874 341.036 376.398 338.795 376.814Z" fill="#5E3C2D"/>
<path d="M338.908 376.688L294.014 385.029C291.773 385.445 290.295 387.596 290.712 389.833L296.272 419.673C296.689 421.91 298.843 423.387 301.084 422.97L345.978 414.63C348.218 414.214 349.697 412.062 349.28 409.825L343.719 379.985C343.302 377.748 341.148 376.272 338.908 376.688Z" fill="#5E3C2D"/>
<path d="M339.022 376.595L294.128 384.936C291.888 385.352 290.409 387.503 290.826 389.74L296.387 419.58C296.804 421.817 298.958 423.293 301.198 422.877L346.092 414.537C348.333 414.12 349.811 411.969 349.394 409.732L343.834 379.892C343.417 377.655 341.263 376.179 339.022 376.595Z" fill="#5E3C2D"/>
<path d="M339.134 376.47L294.241 384.81C292 385.226 290.522 387.377 290.938 389.615L296.499 419.454C296.916 421.692 299.07 423.168 301.311 422.752L346.204 414.411C348.445 413.995 349.923 411.844 349.507 409.606L343.946 379.767C343.529 377.529 341.375 376.053 339.134 376.47Z" fill="#5E3C2D"/>
<path d="M339.249 376.361L294.355 384.702C292.115 385.118 290.636 387.269 291.053 389.506L296.614 419.346C297.03 421.583 299.185 423.06 301.425 422.643L346.319 414.303C348.56 413.887 350.038 411.736 349.621 409.498L344.061 379.659C343.644 377.421 341.49 375.945 339.249 376.361Z" fill="#5E3C2D"/>
<path d="M339.361 376.236L294.467 384.576C292.227 384.993 290.748 387.144 291.165 389.381L296.725 419.221C297.142 421.458 299.297 422.934 301.537 422.518L346.431 414.177C348.672 413.761 350.15 411.61 349.733 409.373L344.173 379.533C343.756 377.296 341.601 375.82 339.361 376.236Z" fill="#5E3C2D"/>
<path d="M339.476 376.143L294.582 384.483C292.342 384.9 290.863 387.051 291.28 389.288L296.84 419.128C297.257 421.365 299.412 422.841 301.652 422.425L346.546 414.084C348.787 413.668 350.265 411.517 349.848 409.28L344.288 379.44C343.871 377.203 341.716 375.727 339.476 376.143Z" fill="#5E3C2D"/>
<path d="M339.588 376.017L294.694 384.358C292.454 384.774 290.975 386.925 291.392 389.162L296.952 419.002C297.369 421.239 299.524 422.715 301.764 422.299L346.658 413.959C348.899 413.542 350.377 411.391 349.96 409.154L344.4 379.314C343.983 377.077 341.828 375.601 339.588 376.017Z" fill="#5E3C2D"/>
<path d="M339.703 375.909L294.809 384.249C292.568 384.666 291.09 386.817 291.507 389.054L297.067 418.894C297.484 421.131 299.638 422.607 301.879 422.191L346.773 413.851C349.013 413.434 350.492 411.283 350.075 409.046L344.515 379.206C344.098 376.969 341.943 375.493 339.703 375.909Z" fill="#5E3C2D"/>
<path d="M339.815 375.783L294.921 384.124C292.68 384.54 291.202 386.691 291.619 388.928L297.179 418.768C297.596 421.005 299.75 422.481 301.991 422.065L346.885 413.725C349.125 413.308 350.604 411.157 350.187 408.92L344.626 379.08C344.209 376.843 342.055 375.367 339.815 375.783Z" fill="#5E3C2D"/>
<path d="M339.93 375.69L295.036 384.031C292.795 384.447 291.317 386.598 291.734 388.835L297.294 418.675C297.711 420.912 299.865 422.389 302.106 421.972L347 413.632C349.24 413.216 350.719 411.064 350.302 408.827L344.741 378.987C344.324 376.75 342.17 375.274 339.93 375.69Z" fill="#5E3C2D"/>
<path d="M340.041 375.565L295.148 383.905C292.907 384.321 291.429 386.472 291.845 388.71L297.406 418.549C297.823 420.787 299.977 422.263 302.218 421.847L347.111 413.506C349.352 413.09 350.83 410.939 350.413 408.701L344.853 378.862C344.436 376.624 342.282 375.148 340.041 375.565Z" fill="#5E3C2D"/>
<path d="M340.171 375.454L295.277 383.794C293.037 384.21 291.558 386.361 291.975 388.599L297.536 418.439C297.953 420.676 300.107 422.152 302.347 421.736L347.241 413.395C349.482 412.979 350.96 410.828 350.543 408.591L344.983 378.751C344.566 376.514 342.412 375.037 340.171 375.454Z" fill="#5E3C2D"/>
<path d="M340.268 375.331L295.374 383.671C293.134 384.088 291.655 386.239 292.072 388.476L297.633 418.316C298.049 420.553 300.204 422.029 302.444 421.613L347.338 413.272C349.579 412.856 351.057 410.705 350.64 408.468L345.08 378.628C344.663 376.391 342.509 374.915 340.268 375.331Z" fill="#5E3C2D"/>
<path d="M340.398 375.235L295.504 383.575C293.264 383.992 291.785 386.143 292.202 388.38L297.762 418.22C298.179 420.457 300.334 421.933 302.574 421.517L347.468 413.176C349.709 412.76 351.187 410.609 350.77 408.372L345.21 378.532C344.793 376.295 342.639 374.819 340.398 375.235Z" fill="#5E3C2D"/>
<path d="M340.495 375.112L295.601 383.453C293.361 383.869 291.882 386.02 292.299 388.257L297.859 418.097C298.276 420.334 300.431 421.81 302.671 421.394L347.565 413.054C349.806 412.637 351.284 410.486 350.867 408.249L345.307 378.409C344.89 376.172 342.736 374.696 340.495 375.112Z" fill="#5E3C2D"/>
<path d="M340.625 375.001L295.731 383.342C293.49 383.758 292.012 385.909 292.429 388.146L297.989 417.986C298.406 420.223 300.56 421.7 302.801 421.283L347.695 412.943C349.935 412.527 351.414 410.375 350.997 408.138L345.437 378.298C345.02 376.061 342.865 374.585 340.625 375.001Z" fill="#5E3C2D"/>
<path d="M340.722 374.878L295.828 383.219C293.587 383.635 292.109 385.786 292.526 388.023L298.086 417.863C298.503 420.1 300.657 421.576 302.898 421.16L347.792 412.82C350.032 412.403 351.511 410.252 351.094 408.015L345.533 378.175C345.117 375.938 342.962 374.462 340.722 374.878Z" fill="#5E3C2D"/>
<path d="M340.851 374.783L295.958 383.123C293.717 383.539 292.239 385.69 292.655 387.928L298.216 417.767C298.633 420.005 300.787 421.481 303.028 421.065L347.921 412.724C350.162 412.308 351.64 410.157 351.224 407.919L345.663 378.08C345.246 375.842 343.092 374.366 340.851 374.783Z" fill="#5E3C2D"/>
<path d="M340.851 374.783L295.958 383.123C293.717 383.539 292.239 385.69 292.655 387.928L298.216 417.767C298.633 420.005 300.787 421.481 303.028 421.065L347.921 412.724C350.162 412.308 351.64 410.157 351.224 407.919L345.663 378.08C345.246 375.842 343.092 374.366 340.851 374.783Z" fill="#8E533A"/>
<path d="M338.692 375.17L298.108 382.71C296.59 382.992 295.588 384.449 295.87 385.966L298.563 400.418C298.846 401.934 300.306 402.934 301.824 402.652L342.408 395.113C343.927 394.83 344.929 393.373 344.646 391.857L341.953 377.404C341.671 375.888 340.211 374.888 338.692 375.17Z" fill="#AE6546"/>
<path d="M322.471 395.032C322.577 395.59 322.199 396.134 321.639 396.239C321.08 396.345 320.536 395.968 320.43 395.409C320.324 394.851 320.702 394.307 321.262 394.202C321.821 394.096 322.365 394.473 322.471 395.032Z" fill="#5E3C2D"/>
<path d="M317.604 352.53C317.604 352.53 317.966 359.307 319.085 361.058C320.219 362.808 321.715 364.816 321.836 367.744C321.912 369.781 321.972 372.181 320.204 373.268C319.538 373.675 318.148 374.204 316.787 374.43C314.837 374.762 312.752 374.656 312.298 373.826C311.527 372.407 311.89 367.397 311.89 367.397C311.89 367.397 311.149 369.766 309.789 370.008C308.444 370.249 309.351 368.619 309.638 368.106C310.182 367.17 310.65 365.495 310.605 364.725C310.56 363.955 312.343 362.657 312.434 361.827C312.525 360.997 311.149 354.236 311.149 354.236L317.589 352.53H317.604Z" fill="#FF8B66"/>
<path d="M304.332 267.602C308.247 270.47 315.17 288.053 319.07 310.074C320.067 315.718 320.551 353.919 320.158 357.209C319.644 361.54 309.925 361.359 309.668 357.933C308.836 346.659 305.133 318.39 303.607 312.76C301.082 303.508 296.971 293.607 294.643 284.627C291.559 272.688 301.279 265.353 304.332 267.602Z" fill="#596B99"/>
<path d="M308.64 354.16L309.592 359.307C309.592 359.307 315.472 362.416 320.052 358.824L320.748 353.42C320.748 353.42 313.628 356.122 308.64 354.175V354.16Z" fill="#6175A3"/>
<path d="M56.9649 265.791C56.9649 265.791 57.4033 263.874 58.4765 263.014C60.3055 261.535 63.0263 259.95 62.2403 256.131C62.2403 256.131 60.2752 248.494 54.3953 253.445C50.5861 256.66 56.9498 265.791 56.9498 265.791H56.9649Z" fill="#9E3834"/>
<path d="M53.186 251.784C53.186 251.784 57.0707 254.079 61.5147 255.844C61.5147 255.844 64.3564 258.622 69.662 258.546C76.2827 258.456 76.5397 263.406 76.5397 263.406C76.5397 263.406 81.4522 258.561 78.8826 253.173C76.3129 247.785 70.3876 244.208 63.51 244.208C57.0707 244.208 51.5233 248.6 53.1709 251.8L53.186 251.784Z" fill="#9E3834"/>
<path d="M63.7517 385.674L65.9888 370.445C65.9888 370.445 66.397 387.44 64.4924 399.137L63.7517 385.674Z" fill="#1C2635"/>
</g>
</g>
<defs>
<clipPath id="clip0_1064_37028">
<path d="M0 0H572C580.837 0 588 7.16344 588 16V408C588 416.837 580.837 424 572 424H0V0Z" fill="white"/>
</clipPath>
</defs>
</svg>
